<?xml version="1.0" encoding="UTF-8"?>
<!DOCTYPE svg PUBLIC "-//W3C//DTD SVG 1.1//EN" "http://www.w3.org/Graphics/SVG/1.1/DTD/svg11.dtd">
<!-- Creator: CorelDRAW 2020 (64-Bit) -->
<svg xmlns="http://www.w3.org/2000/svg" xml:space="preserve" width="17.2235in" height="5.97413in" version="1.1" style="shape-rendering:geometricPrecision; text-rendering:geometricPrecision; image-rendering:optimizeQuality; fill-rule:evenodd; clip-rule:evenodd"
viewBox="0 0 4029.61 1397.71"
 xmlns:xlink="http://www.w3.org/1999/xlink"
 xmlns:xodm="http://www.corel.com/coreldraw/odm/2003">
 <defs>
  <style type="text/css">
   <![CDATA[
    .fil1 {fill:#606062}
    .fil0 {fill:#279E54}
    .fil2 {fill:black;fill-rule:nonzero}
   ]]>
  </style>
 </defs>
 <g id="Layer_x0020_1">
  <metadata id="CorelCorpID_0Corel-Layer"/>
  <path class="fil0" d="M1327.8 -0l-43.23 0 -0.09 21.57c-0.78,336.95 -132.47,653.81 -370.78,892.04 -238.32,238.32 -555.09,370 -892.04,370.78l-21.66 0.18 0 43.23 1327.8 -0 0 -1306.14 0 -21.66z"/>
  <path class="fil1" d="M3027 1068.97l240.31 0 0 -65.53 -240.31 0 0 65.53zm687.95 -146.94l93.46 0 0 -480.45 -93.46 0 0 480.45zm220.67 -338.57l0 349.38c0,19.9 -6.2,35.86 -18.85,48.87 -9.16,9.34 -21.21,14.58 -33.94,14.58l-64.32 0 0 39.53 77.68 0 19.54 0 3.93 -0.18c29.67,-1.22 55.4,-14.4 76.7,-39.26 22.07,-25.84 33.25,-56.99 33.25,-92.67l0 -320.24 -93.99 0zm-428.18 490.92l76.27 0 0 -76.27 -76.27 0 0 76.27zm-17.71 -256.54c0,19.9 -6.21,35.86 -18.86,48.87 -9.16,9.33 -21.2,14.56 -33.95,14.56l-115.43 0c-14.49,0 -26.71,-5.84 -37.27,-17.89 -10.64,-12.39 -15.78,-27.31 -15.78,-45.55l0 -235.43 -93.46 0 0 235.43c0,19.9 -6.19,35.86 -18.84,48.87 -9.17,9.33 -21.22,14.56 -33.95,14.56l-823.99 0c-12.75,0 -24.79,-5.15 -33.95,-14.56 -12.65,-13.01 -18.86,-28.97 -18.86,-48.87l0 -235.43 -94.57 0 0 349.38c0,19.9 -6.2,35.87 -18.85,48.87 -9.17,9.34 -21.21,14.58 -33.96,14.58l-298.6 0c-12.73,0 -24.78,-5.15 -33.95,-14.58 -12.65,-13 -18.84,-28.97 -18.84,-48.86l0 -349.39 -93.89 0 0 320.24c0,35.69 11.15,66.92 33.23,92.67 21.3,24.86 47.12,38.04 76.62,39.26l4.55 0.27 363.87 0 3.92 -0.18c29.67,-1.22 55.51,-14.39 76.71,-39.26 18.68,-21.82 29.58,-47.74 32.46,-76.96 5.76,1.22 11.52,2 17.28,2.27l893.18 0.26c25.74,0 48.34,-8.38 67.11,-24.87 17.7,15.45 38.99,23.72 63.17,24.61l4.52 0.26 180.37 0 3.93 -0.18c29.66,-1.22 55.4,-14.4 76.69,-39.26 22.08,-25.75 33.24,-56.98 33.24,-92.67l0 -206.46 -93.98 0 0 235.43 0.1 0zm-1580.88 -158.11l76.26 0 0 -76.26 -76.26 0 0 76.26z"/>
  <path class="fil2" d="M2033.23 1303.49c1.86,0 3.67,0.38 5.4,1.13 1.7,0.74 3.2,1.73 4.48,2.96 1.26,1.26 2.28,2.72 3.06,4.45 0.75,1.7 1.13,3.54 1.13,5.48 0,1.97 -0.38,3.8 -1.13,5.51 -0.78,1.7 -1.8,3.2 -3.06,4.49 -1.29,1.25 -2.78,2.24 -4.48,2.96 -1.73,0.71 -3.54,1.09 -5.4,1.09 -134.06,0 -133.93,-28.06 0,-28.06zm-72.71 14.01c0,-1.94 0.37,-3.78 1.15,-5.48 0.75,-1.73 1.81,-3.19 3.13,-4.45 1.32,-1.23 2.89,-2.21 4.62,-2.96 1.73,-0.75 3.6,-1.13 5.54,-1.13 132.9,0 132.88,28.06 -0.11,28.06 -1.86,0 -3.71,-0.38 -5.44,-1.09 -1.74,-0.71 -3.3,-1.7 -4.62,-2.96 -1.32,-1.3 -2.38,-2.79 -3.13,-4.49 -0.78,-1.7 -1.15,-3.54 -1.15,-5.51zm-80.45 0c0,-1.94 0.37,-3.78 1.15,-5.48 0.75,-1.73 1.81,-3.19 3.13,-4.45 1.32,-1.23 2.89,-2.21 4.62,-2.96 1.73,-0.75 3.61,-1.13 5.54,-1.13l80.54 0c1.87,0 3.68,0.38 5.41,1.13 1.7,0.74 3.2,1.73 4.49,2.96 1.25,1.26 2.28,2.72 3.05,4.45 0.75,1.7 1.12,3.54 1.12,5.48 0,1.97 -0.37,3.8 -1.12,5.51 -0.78,1.7 -1.8,3.2 -3.05,4.49 -1.3,1.25 -2.79,2.24 -4.49,2.96 -1.73,0.71 -3.54,1.09 -5.41,1.09l-80.65 0c-1.86,0 -3.71,-0.38 -5.44,-1.09 -1.74,-0.71 -3.3,-1.7 -4.62,-2.96 -1.32,-1.3 -2.38,-2.79 -3.13,-4.49 -0.78,-1.7 -1.15,-3.54 -1.15,-5.51zm15.16 14.05c-1.32,0 -3.17,-0.11 -5.51,-0.28 -2.38,-0.17 -4.93,-0.85 -7.65,-1.97 -1.3,7.35 -3.74,14.31 -7.31,20.91 -3.57,6.59 -7.99,12.75 -13.27,18.53 -5.26,5.74 -11.24,11.08 -17.98,15.9 -6.77,4.86 -13.94,9.22 -21.56,13.06l-16.25 -22.44c4.22,-2.14 8.44,-4.45 12.68,-6.97 4.29,-2.51 8.33,-5.17 12.2,-7.99 3.88,-2.82 7.48,-5.74 10.82,-8.77 3.36,-3.06 6.25,-6.19 8.74,-9.46 2.48,-3.26 4.45,-6.59 5.89,-9.99 1.39,-3.4 2.1,-6.83 2.1,-10.31 0,-0.2 0,-0.48 -0.04,-0.81 -0.03,-0.34 -0.03,-0.71 -0.03,-1.05 0,-0.38 -0.04,-0.65 -0.07,-0.82 -0.04,-0.17 -0.04,-0.13 -0.04,0.11l0 0.11c-0.41,-3.44 -1.02,-6.74 -1.77,-9.86 -0.78,-3.12 -1.74,-6.33 -2.89,-9.59 -1.16,-3.23 -2.52,-6.66 -4.04,-10.23 -1.53,-3.57 -3.23,-7.51 -5.14,-11.76l25.64 -11.15c2.35,7.07 4.59,12.99 6.66,17.71 2.04,4.73 4.08,8.54 6.05,11.36 1.97,2.86 3.97,4.83 5.98,5.98 2,1.16 4.15,1.73 6.39,1.73l0.44 0c1.98,0 3.81,0.41 5.51,1.16 1.7,0.78 3.2,1.8 4.49,3.05 1.26,1.3 2.28,2.76 2.99,4.49 0.75,1.7 1.13,3.5 1.13,5.41 0,1.93 -0.38,3.77 -1.13,5.51 -0.71,1.7 -1.73,3.2 -2.99,4.41 -1.29,1.26 -2.79,2.21 -4.49,2.93 -1.7,0.71 -3.57,1.09 -5.57,1.09zm-163.85 35.19c8.32,-1.67 15.94,-3.74 22.78,-6.26 6.87,-2.52 12.88,-5.3 18.06,-8.44 5.21,-3.09 9.49,-6.39 12.88,-9.86 3.4,-3.5 5.81,-7.03 7.22,-10.64 -2.56,0 -5.24,-0.07 -8.06,-0.14 -2.86,-0.1 -5.17,-0.2 -7,-0.34 -6.87,-0.57 -13.13,-2.11 -18.8,-4.55 -5.68,-2.44 -10.2,-5.78 -13.56,-9.96 -2.49,-3.19 -4.25,-6.66 -5.31,-10.4 -1.02,-3.71 -1.53,-7.65 -1.53,-11.79 0,-3.17 0.27,-6.4 0.88,-9.63 0.57,-3.19 1.43,-6.35 2.49,-9.38 1.05,-3.07 2.31,-5.92 3.77,-8.64 1.43,-2.73 2.99,-5.2 4.66,-7.48 3.54,-4.42 7.41,-7.78 11.66,-10.07 4.22,-2.28 8.67,-3.4 13.33,-3.4 9.99,0 19,4.39 27.06,13.13 2.82,3.2 5.37,6.76 7.62,10.74 2.24,3.94 4.15,8.16 5.75,12.61 1.56,4.49 2.75,9.15 3.57,14.05 0.85,4.86 1.26,9.83 1.26,14.85 0,1.53 -0.07,3.06 -0.14,4.6 -0.1,1.53 -0.2,2.99 -0.3,4.35 -0.71,6.9 -2.28,13.4 -4.66,19.48 -2.41,6.05 -5.47,11.63 -9.25,16.76 -3.74,5.1 -8.09,9.75 -13.06,13.91 -4.96,4.18 -10.37,7.85 -16.18,11.01 -5.84,3.17 -12,5.81 -18.49,7.92 -6.53,2.14 -13.2,3.74 -20.07,4.79l-6.56 -27.23zm43.45 -92.85c-1.23,-0.24 -2.62,0.17 -4.22,1.29 -1.56,1.09 -3.03,2.55 -4.42,4.42 -1.39,1.87 -2.55,3.91 -3.46,6.16 -0.92,2.28 -1.37,4.42 -1.37,6.49 0,1.94 0.55,3.57 1.67,4.87 1.12,1.32 2.58,2.37 4.32,3.19 1.74,0.85 3.67,1.46 5.74,1.86 2.11,0.41 4.15,0.71 6.09,0.88l-0.07 0c1.53,0.14 3.26,0.21 5.27,0.24 1.98,0.04 3.92,0.04 5.81,0.04 0.58,0 1.02,0 1.36,0.04 0.34,0.03 0.62,0.06 0.85,0.06 0.25,0 0.48,0 0.75,0 0.27,0 0.68,-0.04 1.19,-0.1 -0.88,-3.68 -1.94,-7.18 -3.13,-10.51 -1.23,-3.34 -2.62,-6.36 -4.22,-9.01 -1.6,-2.66 -3.4,-4.86 -5.4,-6.6 -2.05,-1.77 -4.29,-2.85 -6.77,-3.33zm-72.11 21.55c0,-1.83 -0.58,-3.91 -1.77,-6.22 -1.18,-2.31 -2.72,-4.73 -4.65,-7.2 -1.91,-2.52 -4.05,-5.07 -6.43,-7.65 -2.37,-2.55 -4.72,-5.03 -7.1,-7.41 -1.6,1.8 -3.26,3.77 -5.03,5.98 -1.8,2.24 -3.4,4.59 -4.9,7.08 -1.46,2.48 -2.68,5.03 -3.64,7.68 -0.95,2.62 -1.36,5.21 -1.22,7.75 0.03,1.4 0.71,2.65 2.03,3.71 1.3,1.09 2.86,1.93 4.66,2.58 1.8,0.64 3.71,1.12 5.71,1.46 2.01,0.34 3.74,0.48 5.14,0.48 1.77,0 3.67,-0.13 5.72,-0.38 2.04,-0.27 3.9,-0.74 5.6,-1.39 1.67,-0.64 3.1,-1.5 4.22,-2.55 1.12,-1.09 1.67,-2.38 1.67,-3.92zm-17.21 36.12c-0.27,0 -1.09,-0.07 -2.45,-0.14 -1.33,-0.1 -2.93,-0.31 -4.86,-0.58 -1.91,-0.3 -4.08,-0.78 -6.46,-1.42 -2.42,-0.65 -4.83,-1.53 -7.24,-2.66 -6.46,-3.09 -11.45,-7.31 -14.99,-12.65 -3.54,-5.37 -5.3,-11.59 -5.3,-18.67 0,-11.83 5.23,-24.1 15.67,-36.82 0.85,-0.99 1.53,-1.84 2.11,-2.48 0.55,-0.65 1.05,-1.23 1.53,-1.77 0.48,-0.54 0.95,-1.02 1.39,-1.46 0.44,-0.43 0.95,-0.95 1.53,-1.56 -0.71,-0.58 -1.39,-1.16 -2.07,-1.67 -0.68,-0.54 -1.26,-1.05 -1.74,-1.53l-1.6 -1.39 17.65 -21.56c3.03,2.25 6.63,5.27 10.84,9.08 4.19,3.81 9.05,8.67 14.52,14.59 15.34,17.44 22.99,32.98 22.99,46.58 0,6.97 -1.67,13.16 -5,18.53 -3.36,5.37 -7.99,9.63 -13.91,12.68 -2.04,1.02 -4.18,1.84 -6.32,2.45 -2.18,0.61 -4.25,1.09 -6.26,1.46 -2,0.34 -3.88,0.62 -5.65,0.76 -1.74,0.13 -3.19,0.24 -4.39,0.24zm507.85 -164.77l-73.45 31.04 0.71 -13.3 67.83 -28.32 4.9 10.57zm-79.53 136.72l0.13 -0.01 4.97 0 4.35 0c3.19,0 6.7,-0.03 10.54,-0.13 3.85,-0.08 7.58,-0.38 11.15,-0.89 3.57,-0.51 6.8,-1.25 9.65,-2.24 2.86,-1.02 4.97,-2.41 6.26,-4.18 1.77,-2.72 2.66,-5.81 2.66,-9.32 0,-1.18 -0.11,-2.38 -0.31,-3.6 -0.2,-1.19 -0.44,-2.45 -0.75,-3.74 -0.41,-1.49 -1.3,-3.29 -2.61,-5.37 -1.31,-2.09 -3.04,-4.44 -5.1,-6.94 -2.06,-2.5 -4.43,-5.16 -7.11,-7.96 -2.65,-2.82 -5.47,-5.67 -8.5,-8.63 -3.03,-2.93 -6.19,-5.81 -9.49,-8.7 -3.34,-2.93 -6.63,-5.72 -9.93,-8.44l2.72 -24.14 74.53 -33.19 10.71 23.8 -58.89 27.3c2.89,2 5.88,4.42 8.98,7.17 3.06,2.79 6.05,5.81 8.95,9.11 2.89,3.26 5.63,6.75 8.16,10.41 2.53,3.65 4.76,7.44 6.66,11.29 1.87,3.84 3.37,7.71 4.49,11.59 1.09,3.92 1.6,7.72 1.53,11.46 -0.03,4.42 -0.66,8.59 -1.77,12.38 -1.1,3.79 -2.51,7.2 -4.18,10.24 -6.12,11.01 -16.28,17.71 -30.39,20.12l0.06 -0.07c-1.6,0.27 -3.09,0.48 -4.52,0.62 -1.43,0.11 -2.79,0.17 -4.15,0.17l-28.66 -0.06 -0.13 -0.01 -0.07 0 -0.11 0.01 -80.65 0c-1.83,0 -3.71,-0.38 -5.44,-1.09 -1.73,-0.71 -3.3,-1.7 -4.62,-2.96 -1.33,-1.3 -2.38,-2.79 -3.13,-4.49 -0.78,-1.7 -1.15,-3.54 -1.15,-5.51 0,-1.94 0.37,-3.78 1.15,-5.48 0.75,-1.73 1.8,-3.19 3.13,-4.45 1.32,-1.23 2.91,-2.23 4.62,-2.96 1.72,-0.73 3.6,-1.13 5.54,-1.13l80.54 0 0.1 0.01 0.08 0z"/>
 </g>
</svg>
