<?xml version="1.0" encoding="utf-8"?>
<!-- Generator: Adobe Illustrator 23.1.1, SVG Export Plug-In . SVG Version: 6.00 Build 0)  -->
<svg version="1.1" id="Layer_1" xmlns="http://www.w3.org/2000/svg" xmlns:xlink="http://www.w3.org/1999/xlink" x="0px" y="0px"
	 viewBox="0 0 487.6 164.1" style="enable-background:new 0 0 487.6 164.1;" xml:space="preserve">
<style type="text/css">
	.st0{fill:#808080;}
	.st1{fill:#0A9B4D;}
</style>
<g>
	<g>
		<path class="st0" d="M151.6,140.3c-0.8,0-1.7-0.1-2.4-0.5c-0.7-0.4-1.4-0.7-2-1.3c0-0.1,0.1-0.1,0.1-0.2c0-0.1,0.1-0.1,0.1-0.2
			c0-0.1,0.1-0.2,0.2-0.4s0.2-0.2,0.4-0.5c0.6,0.5,1.2,0.8,1.9,1.2c0.7,0.4,1.3,0.5,1.9,0.5c1,0,1.9-0.1,2.6-0.5
			c0.7-0.4,1.3-0.7,1.8-1.3c-0.6-1.5-1.2-3-1.9-4.5c-0.7-1.5-1.3-3-1.9-4.5c0.1,0,0.1-0.1,0.2-0.1s0.1,0,0.2-0.1
			c0.1,0,0.2-0.1,0.4-0.1c0.1-0.1,0.4-0.1,0.6-0.2l0.8,2.1c0.2,0.7,0.7,1.7,1.2,2.7c0.5,1.1,1.1,2.5,1.7,4l0,0
			c0.1,0.4,0.2,0.7,0.5,1c0.2,0.2,0.4,0.6,0.6,0.7s0.5,0.4,0.8,0.5c0.4,0.1,0.8,0.1,1.4,0.1c0.2,0,0.4,0.1,0.5,0.2
			c0.1,0.1,0.2,0.2,0.2,0.5c0,0.2-0.1,0.4-0.2,0.5c-0.1,0.1-0.4,0.2-0.5,0.2c-0.5,0-1,0-1.3-0.1c-0.4-0.1-0.7-0.2-1.1-0.4
			c-0.4-0.1-0.6-0.4-0.8-0.6c-0.2-0.2-0.5-0.5-0.6-0.7c-0.4,0.4-0.7,0.6-1.1,0.8c-0.4,0.2-0.7,0.5-1.1,0.6c-0.4,0.1-0.8,0.2-1.3,0.4
			C152.9,140.3,152.3,140.3,151.6,140.3z"/>
		<path class="st0" d="M160.1,139.6c0-0.2,0.1-0.4,0.2-0.5c0.1-0.1,0.2-0.2,0.5-0.2h0.2c1.5,0,2.6-0.2,3.3-0.8
			c0.7-0.6,1.1-1.4,1.1-2.5c0-0.5,0-0.8-0.1-1.2s-0.1-0.8-0.4-1.4c0.1,0,0.1,0,0.2-0.1c0.1,0,0.1,0,0.2-0.1c0.1,0,0.2-0.1,0.4-0.1
			s0.2-0.1,0.5-0.1c0.1,0.6,0.2,1.2,0.4,1.7s0.1,1.1,0.1,1.5s0,1,0.1,1.3c0.1,0.4,0.1,0.7,0.4,1c0.2,0.2,0.4,0.5,0.7,0.6
			s0.7,0.2,1.2,0.2c0.2,0,0.4,0.1,0.5,0.2c0.1,0.1,0.2,0.2,0.2,0.5c0,0.2-0.1,0.4-0.2,0.5c-0.1,0.1-0.2,0.2-0.5,0.2
			c-0.7,0-1.3-0.1-1.9-0.5c-0.5-0.4-1-0.7-1.4-1.3c-0.6,0.6-1.3,1.1-2.1,1.3s-1.8,0.5-2.9,0.5h0c-0.2,0-0.4-0.1-0.5-0.2
			C160.2,139.9,160.1,139.7,160.1,139.6z M165.6,128.8l-1.7-1.7l1.7-1.7l1.7,1.7L165.6,128.8z"/>
		<path class="st0" d="M168.4,139.6c0-0.2,0.1-0.4,0.2-0.5c0.1-0.1,0.4-0.2,0.5-0.2h0.1h11h0.1c0.2,0,0.4,0.1,0.5,0.2
			c0.1,0.1,0.2,0.2,0.2,0.5c0,0.2-0.1,0.4-0.2,0.5c-0.1,0.1-0.4,0.2-0.5,0.2h-0.1h-11.1c-0.2,0-0.4-0.1-0.5-0.2
			C168.5,140,168.4,139.7,168.4,139.6z"/>
		<path class="st0" d="M179.4,139.6c0-0.2,0.1-0.4,0.2-0.5c0.1-0.1,0.4-0.2,0.5-0.2h0.1h11h0.1c0.2,0,0.4,0.1,0.5,0.2
			c0.1,0.1,0.2,0.2,0.2,0.5c0,0.2-0.1,0.4-0.2,0.5c-0.1,0.1-0.4,0.2-0.5,0.2h-0.1h-11.1c-0.2,0-0.4-0.1-0.5-0.2
			C179.5,140,179.4,139.7,179.4,139.6z"/>
		<path class="st0" d="M190.3,139.6c0-0.2,0.1-0.4,0.2-0.5c0.1-0.1,0.4-0.2,0.5-0.2h0.1h11h0.1c0.2,0,0.4,0.1,0.5,0.2
			c0.1,0.1,0.2,0.2,0.2,0.5c0,0.2-0.1,0.4-0.2,0.5c-0.1,0.1-0.4,0.2-0.5,0.2h-0.1H191c-0.2,0-0.4-0.1-0.5-0.2
			C190.4,140,190.3,139.7,190.3,139.6z"/>
		<path class="st0" d="M215.8,138.9c0.2,0,0.4,0.1,0.5,0.2c0.1,0.1,0.2,0.2,0.2,0.5c0,0.2-0.1,0.4-0.2,0.5c-0.1,0.1-0.2,0.2-0.5,0.2
			c-0.8,0-1.4-0.4-1.9-1.1l-0.4-0.5l-0.4,0.5c-0.2,0.2-0.5,0.5-0.7,0.6c-0.4,0.2-0.7,0.4-1.1,0.4c-0.1,0-0.2,0-0.2,0
			c-1-0.1-1.9-0.5-3.1-1.1c-0.4-0.1-0.7-0.4-1.1-0.6c-0.1-0.1-0.2-0.1-0.2-0.1s0,0-0.1,0l0,0l0,0l-0.4-0.2l-0.2,0.5l0,0
			c0,0,0,0,0,0.1c0,0.1-0.1,0.1-0.1,0.2c-0.2,0.2-0.5,0.4-0.7,0.6c-0.4,0.2-0.7,0.5-1.2,0.6c-0.6,0.2-1.2,0.2-1.8,0.2
			c-0.2,0-0.4-0.1-0.5-0.2c-0.1-0.1-0.2-0.2-0.2-0.5c0-0.2,0.1-0.4,0.2-0.5c0.1-0.1,0.2-0.2,0.5-0.2c1.2,0,2.3-0.5,3.1-1.5
			c0.4-0.4,0.7-0.8,1-1.4c0.1-0.2,0.2-0.5,0.4-0.7c0-0.1,0.1-0.2,0.1-0.4l0.1-0.1l0.1-0.1l0,0c0.1-0.2,0.1-0.4,0.2-0.5l0,0
			c0.5-1,1-1.5,1.2-1.9c0.5-0.6,1.2-0.8,2-0.8c1,0,1.8,0.4,2.5,1.2c0.7,0.7,1.1,1.8,1.3,2.9c0,0.4,0.1,0.7,0,1.1l0,0l0,0
			c0,0.4,0.1,0.7,0.2,1.1c0.1,0.2,0.2,0.5,0.4,0.6C215,138.7,215.4,138.9,215.8,138.9z M212.2,138.3c0.4-0.4,0.6-1.1,0.6-1.9l0,0
			l0,0c0-0.1,0-0.2,0-0.4l0,0v-0.1c-0.1-0.8-0.4-1.5-0.8-2.1c-0.5-0.7-1.1-1.1-1.8-1.1c-0.5,0-1,0.4-1.4,1c-0.1,0.2-0.4,0.6-0.6,1
			l-0.2,0.6l-0.2,0.6c0,0.1-0.1,0.1-0.1,0.2l-0.1,0.2l-0.1,0.1l-0.1,0.1l-0.2,0.4l0.4,0.2c0,0,0,0,0.1,0c0,0,0.1,0,0.1,0.1
			c0.1,0.1,0.2,0.1,0.2,0.2c0.2,0.1,0.6,0.4,0.8,0.5c0.7,0.5,1.4,0.7,1.9,0.8c0.1,0,0.4,0,0.5,0C211.6,138.8,212,138.7,212.2,138.3z
			"/>
		<path class="st0" d="M215.2,139.6c0-0.2,0.1-0.4,0.2-0.5c0.1-0.1,0.2-0.2,0.5-0.2c0.5,0,0.8-0.1,1.2-0.2c0.4-0.1,0.7-0.5,1.1-0.7
			c0.4-0.2,0.6-0.6,0.8-1.1c0.2-0.5,0.5-0.8,0.7-1.2c0.2-0.4,0.4-0.8,0.5-1.3c0.1-0.5,0.2-0.8,0.4-1.3l1.4,0.2
			c-0.1,0.2-0.1,0.5-0.2,0.7c-0.1,0.2-0.1,0.6-0.2,1c-0.1,0.4-0.1,0.6-0.1,1c0,0.4-0.1,0.6-0.1,0.8c0,0.2,0,0.6,0.1,0.8
			c0,0.2,0.1,0.5,0.2,0.7c0.1,0.2,0.4,0.4,0.6,0.5c0.2,0.1,0.5,0.2,0.8,0.2c0.5,0,0.8-0.1,1.2-0.4c0.4-0.2,0.7-0.5,1-0.8
			s0.5-0.7,0.7-1.2c0.2-0.5,0.4-1,0.6-1.3c0.2-0.4,0.2-1,0.4-1.4c0.1-0.5,0.1-0.8,0.2-1.3c0.1,0,0.1,0,0.2,0c0,0,0.1,0,0.2,0
			s0.2,0,0.4,0.1c0.1,0.1,0.4,0.1,0.6,0.1c0,0.2-0.1,0.5-0.1,0.7s-0.1,0.6-0.1,0.8s-0.1,0.6-0.1,1s0,0.6,0,0.8c0,0.4,0,0.7,0.1,1.1
			s0.1,0.6,0.4,1s0.4,0.5,0.7,0.6c0.2,0.1,0.7,0.2,1.1,0.2s0.7-0.1,1.1-0.2c0.4-0.1,0.5-0.4,0.7-0.6c0.2-0.2,0.4-0.5,0.5-0.8
			c0.1-0.4,0.1-0.7,0.1-1.1c0-0.5,0-1-0.1-1.4c-0.1-0.5-0.2-1-0.4-1.4c-0.1-0.5-0.4-1-0.5-1.3c-0.1-0.5-0.4-0.8-0.5-1.1
			c0.2-0.1,0.5-0.2,0.6-0.4c0.2-0.1,0.4-0.2,0.6-0.4c0.1,0.2,0.2,0.6,0.5,1.1c0.2,0.5,0.4,1,0.6,1.4c0.2,0.5,0.4,1.1,0.5,1.7
			c0.1,0.6,0.2,1.2,0.2,1.7c0,0.6-0.1,1.2-0.2,1.7c-0.1,0.5-0.5,1-0.7,1.3c-0.2,0.4-0.8,0.6-1.3,0.8c-0.5,0.2-1.2,0.2-1.8,0.2
			c-0.2,0-0.6-0.1-0.8-0.1c-0.4-0.1-0.6-0.2-1-0.5c-0.4-0.2-0.6-0.5-0.7-0.8c-0.2-0.4-0.4-0.7-0.5-1.1c-0.1,0.4-0.4,0.7-0.6,1.1
			c-0.2,0.4-0.6,0.6-1,0.8c-0.4,0.2-0.7,0.4-1.1,0.5c-0.4,0.1-0.7,0.1-1.1,0.1c-0.5,0-0.8-0.1-1.2-0.2c-0.4-0.1-0.6-0.4-0.8-0.6
			c-0.2-0.2-0.5-0.5-0.6-0.8c-0.1-0.2-0.2-0.6-0.2-1c-0.2,0.4-0.5,0.7-0.8,1s-0.6,0.5-1,0.7c-0.4,0.2-0.7,0.4-1.2,0.5
			c-0.5,0.1-0.8,0.1-1.3,0.1c-0.2,0-0.4-0.1-0.5-0.2C215.2,139.9,215.2,139.7,215.2,139.6z M224.6,125.2l1.7,1.7l-1.5,1.7l-1.7-1.7
			L224.6,125.2z M227.1,121.9l1.7,1.7l-1.5,1.5l-1.7-1.7L227.1,121.9z M229.5,125.2l1.7,1.7l-1.5,1.5l-1.7-1.7L229.5,125.2z"/>
		<path class="st0" d="M236.7,147.2c1.2-0.2,2.3-0.7,3.3-1.2c1.1-0.5,1.8-1.1,2.5-1.7c0.7-0.6,1.3-1.3,1.7-2
			c0.5-0.7,0.7-1.4,0.7-2.1h-1.2c-0.2,0-0.6,0-1,0s-0.6,0-1,0c-0.7-0.1-1.4-0.2-2-0.5c-0.6-0.2-1.1-0.6-1.4-1.1
			c-0.2-0.2-0.4-0.6-0.5-1.1c-0.1-0.4-0.1-0.8-0.1-1.2c0-0.4,0-0.7,0.1-1.1c0.1-0.4,0.1-0.7,0.2-1.1c0.1-0.4,0.2-0.7,0.5-1.1
			s0.4-0.6,0.5-0.8l0,0c0.4-0.5,0.7-0.7,1.2-1.1s0.8-0.4,1.3-0.4c1,0,1.9,0.5,2.7,1.4l0,0c0.4,0.4,0.6,0.7,0.8,1.2
			c0.2,0.5,0.5,1,0.7,1.5c0.2,0.6,0.4,1.2,0.5,1.8c0.1,0.6,0.1,1.3,0.2,1.9h1.3c0.2,0,0.4,0.1,0.5,0.2c0.1,0.1,0.2,0.2,0.2,0.5
			c0,0.2-0.1,0.4-0.2,0.5c-0.1,0.1-0.4,0.2-0.5,0.2h-1.5c-0.2,1.2-0.6,2.3-1.2,3.1s-1.3,1.8-2.1,2.5s-1.8,1.3-2.7,1.8
			c-1.1,0.5-2,0.8-3.1,1L236.7,147.2z M241.5,132.5c-0.2,0-0.5,0.1-0.6,0.1c-0.2,0.1-0.4,0.2-0.6,0.5s-0.4,0.5-0.5,0.7
			s-0.2,0.6-0.5,0.8c-0.1,0.2-0.2,0.6-0.2,1c0,0.2-0.1,0.6-0.1,0.8c0,0.4,0,0.6,0.1,0.8c0.1,0.2,0.2,0.5,0.4,0.6
			c0.1,0.2,0.4,0.4,0.6,0.5c0.2,0.1,0.5,0.2,0.7,0.2c0.2,0.1,0.5,0.1,0.7,0.1c0.2,0,0.5,0.1,0.6,0.1c0.2,0,0.5,0,0.6,0
			c0.2,0,0.5,0,0.6,0c0.2,0,0.6,0,0.8,0c0.2,0,0.6,0,1,0c0-0.6-0.1-1.2-0.2-1.8c-0.1-0.6-0.2-1.1-0.5-1.5c-0.2-0.5-0.4-0.8-0.6-1.3
			c-0.2-0.5-0.5-0.7-0.6-1c-0.1-0.1-0.2-0.2-0.4-0.4c-0.1-0.1-0.2-0.2-0.4-0.2c-0.1-0.1-0.2-0.1-0.5-0.2
			C241.7,132.2,241.6,132.5,241.5,132.5z"/>
		<path class="st0" d="M247,139.6c0-0.2,0.1-0.4,0.2-0.5c0.1-0.1,0.4-0.2,0.6-0.2h0.1c0.1,0,0.2,0,0.4,0c0.1,0,0.5,0,0.7-0.1
			c0.2-0.1,0.8,0,1.4-0.1c0.6,0,1.3-0.1,2.4-0.1c-0.8-0.7-1.4-1.4-1.8-2.1s-0.6-1.3-0.6-2c0-0.5,0.1-1,0.2-1.4
			c0.1-0.5,0.4-1,0.7-1.4c0.4-0.5,0.7-0.8,1.2-1.2s1.1-0.6,1.7-0.7l-1.8-0.7l0.7-1.3c0,0,0.1,0,0.4,0.1c0.2,0.1,0.5,0.1,0.8,0.4
			c0.4,0.1,0.7,0.2,1.2,0.5c0.5,0.2,1,0.4,1.4,0.6c0.7,0.4,1.4,0.6,2.1,1c0.7,0.4,1.3,0.7,1.9,1c0.6,0.4,1.1,0.7,1.5,1
			c0.5,0.2,0.8,0.7,1.1,1l0,0c0.7,1,1.1,1.9,1.1,2.9c0,0.7-0.2,1.3-0.6,2c-0.4,0.6-1,1.1-1.7,1.5c-0.2,0.1-0.5,0.2-0.7,0.4
			c-0.2,0.1-0.6,0.1-1,0.2c-0.4,0-0.6,0.1-1,0.1s-0.6,0-1,0c-0.7,0-1.4-0.1-2-0.1c-0.6,0-1.3-0.2-2-0.6c-0.4,0.1-0.8,0.2-1.4,0.4
			c-0.6,0.1-1.1,0.1-1.7,0.2c-0.6,0.1-1.2,0.1-1.8,0.1s-1.2,0-1.8,0h-0.5c-0.2,0-0.4-0.1-0.6-0.2C247.1,140,247,139.7,247,139.6z
			 M255.6,130.8c-0.2-0.1-0.6-0.1-0.8,0c-0.2,0.1-0.6,0.2-1,0.5s-0.6,0.5-0.8,0.7c-0.2,0.2-0.5,0.6-0.7,0.8c-0.2,0.4-0.4,0.6-0.5,1
			c-0.1,0.4-0.1,0.6-0.1,1s0.1,0.7,0.4,1c0.1,0.4,0.4,0.6,0.6,1c0.2,0.2,0.5,0.6,0.8,0.8c0.4,0.2,0.6,0.5,1,0.6
			c0.5-0.2,1-0.5,1.3-0.7c0.4-0.4,0.7-0.7,1-1.1c0.2-0.4,0.5-0.8,0.6-1.2c0.1-0.5,0.1-0.8,0.1-1.2s0-0.7-0.1-1.1
			c-0.1-0.4-0.2-0.6-0.4-1c-0.1-0.2-0.4-0.5-0.6-0.7C256,130.9,255.8,130.9,255.6,130.8z M256.3,138.7c0.4,0.1,0.7,0.1,1,0.2
			c0.2,0.1,0.5,0.1,0.7,0.1c0.2,0,0.4,0,0.6,0c0.1,0,0.2,0,0.5,0c0.7,0,1.3-0.1,1.8-0.2c0.5-0.1,1-0.4,1.3-0.6s0.6-0.6,0.8-1
			s0.2-0.7,0.2-1.1c0-0.4-0.1-0.7-0.4-1.2c-0.2-0.5-0.6-0.8-1-1.3s-1-0.8-1.5-1.2c-0.6-0.4-1.3-0.7-2.1-1c0.1,0.2,0.2,0.5,0.4,0.8
			c0.1,0.2,0.1,0.5,0.1,0.7c0,0.2,0,0.5,0,0.6c0,0.1,0,0.4,0,0.5c0,0.4,0,0.8-0.1,1.2c-0.1,0.4-0.2,0.8-0.5,1.3
			c-0.2,0.5-0.5,0.8-0.8,1.2C257,138.1,256.6,138.4,256.3,138.7z"/>
		<path class="st0" d="M289.6,131.2c0.2,0,0.5-0.1,0.6-0.1c0.2,0,0.4,0,0.6,0c0.5,0,1,0,1.3,0.1c0.4,0.1,0.7,0.1,1,0.2
			c0,0.1-0.1,0.1-0.1,0.2c0,0.1-0.1,0.1-0.1,0.2s-0.1,0.2-0.1,0.4c-0.1,0.1-0.1,0.4-0.2,0.6c-0.1,0-0.4-0.1-0.6-0.1
			c-0.2,0-0.5-0.1-0.7-0.1c-0.2,0-0.5,0-0.7,0s-0.5,0-0.6,0.1l0,0c-0.4,0-0.7,0.1-1.1,0.2c-0.4,0.1-0.7,0.4-1.1,0.6
			c-0.4,0.2-0.7,0.6-1,0.8c-0.2,0.2-0.6,0.7-0.8,1.1c-0.2,0.4-0.5,0.7-0.6,1.1c-0.1,0.4-0.2,0.7-0.2,1.2c0,0.1,0,0.2,0,0.5
			c0,0.2,0,0.2,0.1,0.5c0.1,0.2,0.2,0.5,0.5,0.7c0.2,0.2,0.5,0.4,0.7,0.5c0.2,0.1,0.6,0.2,1,0.4s0.7,0.1,1.1,0.2l0,0
			c0.4,0.1,0.8,0.2,1.2,0.4c0.4,0.1,0.7,0.2,1.1,0.5c0.4,0.2,0.6,0.5,0.8,0.7c0.2,0.2,0.2,0.7,0.2,1.2c0,0.2,0,0.5-0.1,0.7l0,0
			c-0.1,0.7-0.5,1.3-1,1.9c-0.5,0.6-1.2,1.1-2,1.5c-0.8,0.5-1.8,0.7-2.9,1c-1.1,0.2-2.3,0.4-3.6,0.4c-1.4,0-2.7-0.2-3.8-0.6
			c-1.1-0.4-2-1.1-2.7-1.8l0,0c-0.5-0.6-0.8-1.2-1.2-2s-0.4-1.5-0.4-2.4c0-0.4,0-0.7,0.1-1.2l0,0c0.1-0.6,0.2-1.3,0.4-2
			s0.4-1.3,0.5-1.9c0.1-0.6,0.4-1.2,0.5-1.7c0.1-0.5,0.2-1,0.4-1.2l1.4,0.5c-0.4,1.1-0.6,2.1-1,3.2c-0.2,1.1-0.5,2.1-0.6,3.2
			c0,0.1,0,0.2,0,0.5c0,0.2,0,0.4,0,0.5c0,0.2,0,0.6,0.1,0.8c0,0.2,0.1,0.6,0.2,1c0.1,0.2,0.2,0.6,0.4,0.8c0.1,0.2,0.4,0.6,0.6,0.8
			c0.6,0.6,1.3,1.1,2.3,1.4c1,0.4,2,0.5,3.2,0.5c1.2,0,2.3-0.1,3.3-0.4c1-0.2,1.8-0.5,2.5-0.8c0.7-0.4,1.2-0.7,1.7-1.2
			s0.6-1,0.6-1.3c0-0.2,0-0.5-0.1-0.6c-0.1-0.1-0.4-0.4-0.6-0.5c-0.2-0.1-0.5-0.2-0.8-0.4c-0.4-0.1-0.6-0.1-0.8-0.2
			c-0.4-0.1-0.8-0.2-1.2-0.4c-0.5-0.1-0.8-0.4-1.2-0.5c-0.4-0.2-0.7-0.5-1.1-0.7c-0.4-0.2-0.5-0.7-0.6-1.1c-0.1-0.4-0.1-0.7-0.1-1.2
			c0-0.8,0.1-1.5,0.5-2.3c0.4-0.7,0.7-1.4,1.2-2c0.5-0.6,1.2-1.1,1.8-1.5C288.1,131.6,288.8,131.4,289.6,131.2z"/>
		<path class="st0" d="M300.8,135c0.1,0.6,0.2,1.1,0.5,1.7c0.1,0.6,0.2,1.1,0.4,1.7c0.1,0.6,0.1,1,0.1,1.3c0,0.6-0.1,1.3-0.2,1.9
			c-0.2,0.6-0.5,1.2-0.7,1.8c-0.2,0.6-0.7,1.1-1.2,1.7c-0.5,0.5-1,1-1.4,1.4c-0.6,0.5-1.1,0.8-1.7,1.3c-0.6,0.5-1.2,0.7-1.8,1.1
			l-0.6-1.3c0.8-0.5,1.7-1,2.4-1.5c0.8-0.6,1.4-1.2,2-1.9c0.6-0.7,1.1-1.3,1.4-2.1s0.6-1.5,0.6-2.4c0-0.5,0-1-0.1-1.4
			c-0.1-0.5-0.2-1-0.4-1.4c-0.1-0.5-0.2-1-0.5-1.4c-0.1-0.5-0.2-1-0.5-1.3l1.4-0.5C300.6,133.9,300.7,134.5,300.8,135z"/>
		<path class="st0" d="M306.8,123.4c0,0.6,0,1.2,0.1,2c0,0.8,0.1,1.7,0.1,2.6c0,1,0.1,1.9,0.1,3c0,1.1,0,2,0,3s0,1.9,0,2.7
			s-0.1,1.5-0.1,2.1c-0.1,0.6-0.1,1.1-0.2,1.3l-1.4-0.2c0.1-0.2,0.1-0.5,0.2-1c0-0.5,0.1-1,0.1-1.7s0-1.3,0-2.1s0-1.7,0-2.5
			s0-1.8,0-2.6c0-1,0-1.8-0.1-2.7c-0.1-1-0.1-1.8-0.1-2.6s-0.1-1.5-0.1-2.3l1.4-0.2C306.8,122.5,306.8,122.8,306.8,123.4z"/>
		<path class="st0" d="M313.9,142.7c-0.4,0.8-1,1.7-1.7,2.5c-0.7,0.7-1.4,1.4-2.4,2.1c-1,0.7-1.8,1.2-2.7,1.7
			c-0.1-0.1-0.1-0.2-0.2-0.4c-0.1-0.1-0.1-0.2-0.1-0.4c0-0.1-0.1-0.1-0.1-0.2c0-0.1-0.1-0.2-0.1-0.2c0.8-0.5,1.7-1,2.4-1.5
			c0.7-0.6,1.4-1.2,2-1.8c0.6-0.7,1.1-1.3,1.4-2.1s0.6-1.5,0.6-2.4c0-0.5,0-0.8-0.1-1.3c-0.1-0.5-0.2-1-0.4-1.4
			c-0.1-0.5-0.2-1-0.5-1.4c-0.2-0.5-0.2-1-0.5-1.4l1.3-0.5c0.4,1,0.6,1.7,1,2.3c0.4,0.6,0.6,1.2,1,1.5s0.7,0.7,1.1,1
			s0.8,0.2,1.2,0.2l0,0c0.2,0,0.4,0.1,0.5,0.2c0.1,0.1,0.2,0.4,0.2,0.5c0,0.2-0.1,0.4-0.2,0.5c-0.1,0.1-0.4,0.2-0.5,0.2
			s-0.2,0-0.5,0c-0.2,0-0.5-0.1-0.8-0.1s-0.6-0.2-0.8-0.4c-0.2-0.1-0.6-0.5-0.8-0.7l0.1,1C314.5,140.9,314.3,141.8,313.9,142.7z
			 M312.1,130.3l-1.7-1.7l1.7-1.7l1.7,1.7L312.1,130.3z"/>
		<path class="st0" d="M316.4,139.6c0-0.2,0.1-0.4,0.2-0.5c0.1-0.1,0.4-0.2,0.6-0.2h0.1h11h0.1c0.2,0,0.4,0.1,0.5,0.2
			c0.1,0.1,0.2,0.2,0.2,0.5c0,0.2-0.1,0.4-0.2,0.5c-0.1,0.1-0.4,0.2-0.5,0.2h-0.1h-11.1c-0.2,0-0.4-0.1-0.5-0.2
			C316.6,140,316.4,139.7,316.4,139.6z"/>
		<path class="st0" d="M327.3,139.6c0-0.2,0.1-0.4,0.2-0.5c0.1-0.1,0.4-0.2,0.6-0.2h0.1h11h0.1c0.2,0,0.4,0.1,0.5,0.2
			c0.1,0.1,0.2,0.2,0.2,0.5c0,0.2-0.1,0.4-0.2,0.5c-0.1,0.1-0.4,0.2-0.5,0.2h-0.1h-11.1c-0.2,0-0.4-0.1-0.5-0.2
			C327.6,140,327.3,139.7,327.3,139.6z"/>
		<path class="st0" d="M338.4,139.6c0-0.2,0.1-0.4,0.2-0.5c0.1-0.1,0.4-0.2,0.6-0.2h0.7h0.6c0.5,0,1.1,0,1.5,0c0.5,0,1,0,1.4-0.1
			c0.5-0.1,0.8-0.1,1.3-0.4c0.4-0.1,0.7-0.4,1.1-0.6c0.4-0.2,0.5-0.6,0.7-1s0.2-0.8,0.2-1.4c0-0.4,0-0.8-0.2-1.3
			c-0.1-0.4-0.4-0.7-0.6-1.3c-0.4-0.5-0.7-1.1-1.3-1.7c-0.6-0.6-1.1-1.2-1.7-1.8c-0.6-0.6-1.3-1.2-1.9-1.8c0-0.1,0-0.2,0-0.4
			c0-0.1,0-0.2,0-0.4c0-0.1,0-0.4,0.1-0.5c0.1-0.1,0-0.5,0.1-0.7c1-0.4,1.8-0.7,2.6-1.1c0.8-0.4,1.5-0.7,2.4-1
			c0.7-0.4,1.4-0.6,2.1-1c0.7-0.4,1.4-0.6,2-0.8c0.1,0.2,0.2,0.5,0.2,0.6c0,0.1,0.2,0.5,0.2,0.7l-8.9,3.7c0.2,0.2,0.5,0.5,0.8,0.7
			c0.2,0.2,0.6,0.5,0.8,0.7s0.6,0.5,0.8,0.7c0.2,0.2,0.5,0.5,0.7,0.8c0.6,0.6,1,1.2,1.3,1.7c0.4,0.5,0.6,1.1,0.8,1.5
			c0.2,0.5,0.4,1,0.5,1.4c0.1,0.5,0.1,0.8,0.1,1.2c0,0.6-0.1,1.2-0.2,1.7c-0.1,0.5-0.5,1-0.8,1.3c-0.4,0.4-0.7,0.7-1.2,1.1
			c-0.5,0.2-1.1,0.5-1.7,0.6c-0.1,0-0.4,0-0.5,0.1c-0.1,0-0.4,0-0.5,0h-3.9c-0.2,0-0.5-0.1-0.6-0.2
			C338.5,140.1,338.4,139.7,338.4,139.6z M345.3,121.8c-1.4,0.6-2.9,1.2-4.4,1.9v-1.1l8.3-3.5l0.4,0.8
			C348.2,120.6,346.8,121.2,345.3,121.8z"/>
		<path class="st0" d="M355.1,135c0.1,0.6,0.2,1.1,0.5,1.7c0.1,0.6,0.2,1.1,0.4,1.7c0.1,0.6,0.1,1,0.1,1.3c0,0.6-0.1,1.3-0.2,1.9
			c-0.2,0.6-0.5,1.2-0.7,1.8c-0.2,0.6-0.7,1.1-1.2,1.7c-0.5,0.5-1,1-1.4,1.4c-0.6,0.5-1.1,0.8-1.7,1.3c-0.6,0.5-1.2,0.7-1.8,1.1
			l-0.6-1.3c0.8-0.5,1.7-1,2.4-1.5c0.8-0.6,1.4-1.2,2-1.9c0.6-0.7,1.1-1.3,1.4-2.1s0.6-1.5,0.6-2.4c0-0.5,0-1-0.1-1.4
			c-0.1-0.5-0.2-1-0.4-1.4c-0.1-0.5-0.2-1-0.5-1.4c-0.1-0.5-0.2-1-0.5-1.3l1.4-0.5C354.8,133.9,355,134.5,355.1,135z"/>
		<path class="st0" d="M365.2,140.2c-0.8,0-1.5-0.1-2.1-0.2c-0.6-0.2-1.1-0.5-1.4-0.8c-0.2-0.2-0.5-0.5-0.6-0.7
			c-0.1-0.2-0.2-0.6-0.2-0.8c0-0.2-0.1-0.6-0.1-0.8c0-0.2,0-0.5,0-0.7c0-0.6,0-1.2,0-1.9c0-0.7,0-1.5,0-2.3c0-0.8,0-1.7,0-2.5
			c0-0.8,0-1.7-0.1-2.5c0-0.8,0-1.5-0.1-2.3c-0.1-0.7-0.1-1.3-0.1-1.9l1.4-0.2c0.1,0.5,0.1,1.2,0.1,1.9s0.1,1.4,0.1,2.3
			c0,0.8,0,1.7,0.1,2.5c0,0.8,0,1.7,0,2.5c0,0.8,0,1.7,0,2.5c0,0.8,0,1.5,0,2.3c0,0.2,0,0.4,0,0.6c0,0.1,0,0.4,0,0.5
			s0.1,0.4,0.1,0.5c0.1,0.1,0.1,0.2,0.2,0.4c0.2,0.2,0.5,0.4,1,0.5c0.5,0.1,1,0.2,1.4,0.2h0.1c0.2,0,0.4,0.1,0.5,0.2
			c0.1,0.1,0.2,0.2,0.2,0.5c0,0.2-0.1,0.4-0.2,0.5C365.3,140.3,365.4,140.2,365.2,140.2z"/>
		<path class="st0" d="M364.4,139.6c0-0.2,0.1-0.4,0.2-0.5c0.1-0.1,0.4-0.2,0.6-0.2h0.1h11h0.1c0.2,0,0.4,0.1,0.5,0.2
			c0.1,0.1,0.2,0.2,0.2,0.5c0,0.2-0.1,0.4-0.2,0.5c-0.1,0.1-0.4,0.2-0.5,0.2h-0.1h-11.1c-0.2,0-0.4-0.1-0.5-0.2
			C364.6,140,364.4,139.7,364.4,139.6z"/>
		<path class="st0" d="M375.3,139.6c0-0.2,0.1-0.4,0.2-0.5c0.1-0.1,0.4-0.2,0.6-0.2h0.1h11h0.1c0.2,0,0.4,0.1,0.5,0.2
			c0.1,0.1,0.2,0.2,0.2,0.5c0,0.2-0.1,0.4-0.2,0.5c-0.1,0.1-0.4,0.2-0.5,0.2h-0.1h-11.1c-0.2,0-0.4-0.1-0.5-0.2
			C375.6,140,375.3,139.7,375.3,139.6z"/>
		<path class="st0" d="M386.2,139.6c0-0.2,0.1-0.4,0.2-0.5c0.1-0.1,0.4-0.2,0.6-0.2h0.7h0.6c0.5,0,1.1,0,1.5,0c0.5,0,1,0,1.4-0.1
			c0.5-0.1,0.8-0.1,1.3-0.4c0.4-0.1,0.7-0.4,1.1-0.6c0.4-0.2,0.5-0.6,0.7-1s0.2-0.8,0.2-1.4c0-0.4,0-0.8-0.2-1.3
			c-0.1-0.4-0.4-0.7-0.6-1.3c-0.2-0.6-0.7-1.1-1.3-1.7c-0.6-0.6-1.1-1.2-1.7-1.8c-0.6-0.6-1.3-1.2-1.9-1.8c0-0.1,0-0.2,0-0.4
			c0-0.1,0-0.2,0-0.4c0-0.1,0-0.4,0.1-0.5c0.1-0.1,0-0.5,0.1-0.7c1-0.4,1.8-0.7,2.6-1.1c0.8-0.4,1.5-0.7,2.4-1
			c0.7-0.4,1.4-0.6,2.1-1c0.7-0.4,1.4-0.6,2-0.8c0.1,0.2,0.2,0.5,0.2,0.6c0,0.1,0.2,0.5,0.2,0.7l-8.9,3.7c0.2,0.2,0.5,0.5,0.8,0.7
			c0.2,0.2,0.6,0.5,0.8,0.7s0.6,0.5,0.8,0.7c0.2,0.2,0.5,0.5,0.7,0.8c0.6,0.6,1,1.2,1.3,1.7c0.4,0.5,0.6,1.1,0.8,1.5
			c0.2,0.5,0.4,1,0.5,1.4c0.1,0.5,0.1,0.8,0.1,1.2c0,0.6-0.1,1.2-0.2,1.7c-0.1,0.5-0.5,1-0.8,1.3c-0.4,0.4-0.7,0.7-1.2,1.1
			c-0.5,0.2-1.1,0.5-1.7,0.6c-0.1,0-0.4,0-0.5,0.1c-0.1,0-0.4,0-0.5,0H387c-0.2,0-0.5-0.1-0.6-0.2
			C386.3,140.1,386.2,139.7,386.2,139.6z"/>
	</g>
	<path class="st1" d="M125.3,21.4h-3.8v1.9c-0.1,29.4-11.5,57.1-32.3,77.9s-48.4,32.3-77.9,32.3H9.4v3.8h115.9v-114V21.4z"/>
	<g>
		<rect x="428.7" y="19.5" class="st0" width="12.7" height="65.6"/>
		<path class="st0" d="M458.8,38.9v47.6c0,2.7-0.8,4.9-2.6,6.7c-1.2,1.3-2.9,2-4.6,2h-8.8v5.4h10.6h2.6h0.6c4-0.1,7.6-2,10.5-5.4
			c3-3.6,4.5-7.7,4.5-12.6V38.9H458.8z"/>
		<rect x="400.3" y="95.4" class="st0" width="10.4" height="10.4"/>
		<path class="st0" d="M397.9,70.9c0,2.7-0.8,4.9-2.6,6.7c-1.2,1.3-2.9,2-4.6,2H375c-2,0-3.7-0.8-5.1-2.5c-1.4-1.7-2.1-3.7-2.1-6.2
			V38.8H355v32.1c0,2.7-0.8,4.9-2.6,6.7c-1.2,1.3-2.9,2-4.6,2H235.3c-1.8,0-3.3-0.7-4.6-2c-1.8-1.8-2.6-3.9-2.6-6.7V38.8h-12.9v47.6
			c0,2.7-0.8,4.9-2.6,6.7c-1.3,1.3-2.9,2-4.6,2h-40.7c-1.8,0-3.3-0.7-4.6-2c-1.7-1.8-2.6-3.9-2.6-6.7V38.8h-12.9v43.7
			c0,4.9,1.5,9.2,4.5,12.6c2.9,3.3,6.4,5.2,10.5,5.4h0.6h49.6h0.5c4-0.1,7.6-2,10.5-5.4c2.5-3,4-6.5,4.4-10.5
			c0.8,0.1,1.5,0.2,2.4,0.4H352c3.6,0,6.5-1.2,9.2-3.3c2.4,2.1,5.4,3.2,8.6,3.3h0.6H395h0.6c4-0.1,7.6-2,10.5-5.4
			c3-3.5,4.5-7.7,4.5-12.6V38.8h-12.9L397.9,70.9L397.9,70.9z"/>
		<rect x="182.3" y="38.9" class="st0" width="10.4" height="10.4"/>
		<rect x="334.8" y="96.2" class="st0" width="32.7" height="8.9"/>
	</g>
</g>
</svg>
